Coordinates
version=1
nRows=16
nColumns=36
inDegrees=yes

Units are S.I. units (second, meters, Newtons, ...)
If the header above contains a line with 'inDegrees', this indicates whether rotational values are in degrees (yes) or radians (no).

endheader
time	pelvis_tilt	pelvis_list	pelvis_rotation	pelvis_tx	pelvis_ty	pelvis_tz	hip_flexion_r	hip_adduction_r	hip_rotation_r	knee_angle_r	knee_angle_r_beta	ankle_angle_r	subtalar_angle_r	mtp_angle_r	hip_flexion_l	hip_adduction_l	hip_rotation_l	knee_angle_l	knee_angle_l_beta	ankle_angle_l	subtalar_angle_l	mtp_angle_l	lumbar_extension	lumbar_bending	lumbar_rotation	arm_flex_r	arm_add_r	arm_rot_r	elbow_flex_r	pro_sup_r	arm_flex_l	arm_add_l	arm_rot_l	elbow_flex_l	pro_sup_l
     44.65000000	     -5.74992299	      2.33487868	     -5.85859554	      0.70715434	      0.90068880	      0.71422166	     34.54602269	     -2.91451703	     -0.16034895	     13.19403567	      0.23027936	      6.49548067	     -5.29849796	     -7.49999987	     -0.52425783	      4.36624095	     -2.45722468	     11.74603097	      0.20500691	     21.13527596	     -1.92902675	     -7.49999987	      5.07183208	     -1.94176083	     -6.02499498	     -8.19264808	    -10.22590019	      1.58120825	     19.64184120	     78.57088160	     10.94060905	    -12.91367971	      7.00407959	     32.57292892	     76.99804518
     44.66666670	     -6.01947238	      2.08718732	     -5.45895172	      0.70799457	      0.89917225	      0.71666471	     34.84220858	     -2.68218938	     -0.15861657	     10.37091585	      0.18100663	      7.76423312	     -3.34036679	     -7.49999987	     -0.87058322	      4.08893690	     -2.83132118	     12.50590479	      0.21826921	     22.47562818	     -1.92464631	     -7.49999987	      5.09476823	     -1.61964635	     -6.24846204	     -7.99437649	    -10.57383871	      2.49104573	     20.09358486	     78.00499369	     11.36650243	    -12.72806849	      7.90127147	     32.55973245	     77.15421179
     44.68333330	     -6.24165173	      1.82645861	     -5.31584443	      0.70880535	      0.89665841	      0.72002216	     34.99707253	     -2.19475992	      0.57193580	      8.94529396	      0.15612483	      8.61564158	     -2.74156461	     -7.49999987	     -1.26987704	      3.78392450	     -3.06878468	     13.28161955	      0.23180799	     23.61075323	     -2.48105723	     -7.49999987	      5.24328768	     -1.36869545	     -6.25529473	     -7.78168670	    -10.69613610	      2.51238584	     20.32706302	     78.02926712	     11.36041934	    -12.39598816	      8.00075686	     32.61487644	     77.20859315
     44.70000000	     -6.27648693	      1.07214007	     -5.31821315	      0.71079411	      0.89432211	      0.72513765	     34.62983416	     -1.18180175	      0.43970106	      8.89394235	      0.15522858	      9.06898249	     -2.29314370	     -7.49999987	     -1.90921833	      2.90122991	     -3.42606334	     14.21938744	      0.24817513	     24.89718139	     -2.85348498	     -7.49999987	      5.29482483	     -0.32557789	     -6.21220677	     -7.54462843	    -10.98919401	      2.57607668	     20.44776332	     78.12053150	     11.13724422	    -11.85089824	      8.16842578	     32.37271829	     77.32669075
     44.71666670	     -6.11184621	      0.19786234	     -5.33392616	      0.71391377	      0.89345249	      0.73040020	     33.84780004	     -0.04183279	     -0.40932404	     10.13074341	      0.17681483	      8.93551813	     -2.12550646	     -7.49999987	     -2.90487670	      1.83553460	     -3.79019772	     15.04409083	      0.26256892	     25.79697213	     -2.76588594	     -7.49999987	      5.19686267	      0.66396347	     -6.22262838	     -7.40263338	    -11.23952633	      2.70550929	     20.52405490	     78.24858614	     10.70413506	    -11.24569879	      8.33472131	     31.80546128	     77.45999404
     44.73333330	     -5.49159964	     -0.70939239	     -5.39816035	      0.71654534	      0.89424591	      0.73333397	     32.42118242	      1.08162609	     -1.61664713	     11.80441762	      0.20602595	      8.24363821	     -1.87806911	     -7.49999987	     -4.56970451	      0.72580136	     -4.49806827	     15.70087896	      0.27403203	     26.49557491	     -1.69978673	     -7.49999987	      4.79738082	      1.68959634	     -6.04518003	     -7.17154291	    -11.55936963	      3.58319907	     20.20785878	     78.42612877	     10.68363409	    -10.46597656	      8.63249973	     30.08852133	     77.75565987
     44.75000000	     -5.06783671	     -1.45225864	     -5.52837466	      0.71735495	      0.89377967	      0.73493463	     31.26434084	      2.10555813	     -2.22527186	     13.44602882	      0.23467747	      6.97627364	     -2.46877258	     -7.49999987	     -6.05360477	     -0.12745372	     -4.66359829	     16.36265394	      0.28558219	     26.21265242	     -1.92195797	     -7.49999987	      4.62964314	      2.60496686	     -6.11025188	     -7.10292281	    -11.80793764	      3.64771253	     20.48408754	     77.90179725	      9.89922979	     -9.99108371	      8.66140920	     29.65518331	     77.27721001
     44.76666670	     -4.61921197	     -2.10017872	     -5.71399772	      0.71607741	      0.89308377	      0.73727939	     30.21227208	      3.02940109	     -2.52765182	     14.91948715	      0.26039417	      5.79432724	     -3.23405578	     -7.49999987	     -7.42847096	     -0.87664443	     -4.92977470	     17.27231509	      0.30145877	     25.60176376	     -2.17239732	     -7.49999987	      4.48556933	      3.42082755	     -5.91133009	     -6.87538757	    -11.98361032	      3.78806606	     20.07483214	     77.61380776	      9.37475458	     -9.37402760	      8.59648634	     28.81527706	     76.99354199
     44.78333330	     -4.51861384	     -2.67695420	     -5.99184721	      0.71466682	      0.89306665	      0.74027937	     29.59174894	      3.95930175	     -2.44464192	     16.20157475	      0.28277082	      4.85599110	     -4.01006943	     -7.49999987	     -8.13736750	     -1.60592302	     -5.14864482	     18.66834900	      0.32582416	     24.58604449	     -2.84122843	     -7.49999987	      4.80084252	      4.13149290	     -5.62968753	     -6.53090997	    -12.09641242	      4.31321536	     19.27967745	     77.35280773	      8.76013322	     -8.79558550	      8.46879440	     27.72345000	     76.79774744
     44.80000000	     -4.28643859	     -3.33385055	     -6.25909020	      0.71400181	      0.89539263	      0.74179091	     28.74857024	      4.83825281	     -2.56876513	     17.25662574	      0.30118494	      4.50158775	     -4.18173784	     -7.49999987	     -8.56189691	     -2.44370170	     -5.19253472	     20.68016442	      0.36093696	     23.09269896	     -4.23312861	     -7.49999987	      4.80988111	      4.98533547	     -5.32787696	     -6.27846135	    -12.23474697	      4.18487262	     19.05924481	     77.03869754	      8.20451699	     -8.10666091	      7.97925791	     26.77710021	     76.59341680
     44.81666670	     -4.21395169	     -3.84632169	     -6.97294652	      0.71393888	      0.89794149	      0.74259955	     28.01556708	      5.87781775	     -1.52256920	     18.20380069	      0.31771626	      4.04958326	     -5.48184442	     -7.49999987	     -8.34417564	     -3.25520145	     -5.87149736	     23.41585854	      0.40868383	     21.52489896	     -5.05664322	     -7.49999987	      4.96703927	      5.77556054	     -4.69089119	     -5.86887841	    -12.28121371	      4.38982343	     18.52761161	     77.32484660	      7.27317099	     -7.48639373	      7.21736002	     26.15626102	     77.03091233
     44.83333330	     -4.07012450	     -4.35943670	     -7.66270718	      0.71341709	      0.90059970	      0.74313774	     27.07579003	      6.78170976	     -0.82822669	     19.03332724	      0.33219423	      4.33482745	     -6.25447166	     -7.49999987	     -7.53533932	     -4.14488101	     -6.37627615	     27.07800013	      0.47260026	     19.21093548	     -6.59271832	     -7.49999987	      4.94156013	      6.58377818	     -4.07123353	     -5.40864586	    -12.39659664	      4.41241793	     18.10406010	     77.52755966	      6.49246768	     -6.85212253	      6.75193832	     25.04414673	     77.24220150
     44.85000000	     -3.85288112	     -4.86211403	     -8.33759690	      0.71232879	      0.90344558	      0.74484934	     25.84771386	      7.64424145	     -0.15890598	     19.57428123	      0.34163566	      5.01402697	     -6.94781593	     -7.49999987	     -6.17524127	     -5.18132821	     -6.94077399	     31.58556469	      0.55127210	     16.32832339	     -8.02123244	     -7.49999987	      4.76598994	      7.41234730	     -3.38267598	     -4.81569388	    -12.47902426	      4.45151383	     17.54644560	     77.64710946	      5.70180657	     -6.16961124	      6.48588310	     23.68220134	     77.37258897
     44.86666670	     -3.64646970	     -5.27751242	     -9.01135783	      0.71151758	      0.90653412	      0.74744832	     24.48779030	      8.41988344	      0.51876426	     19.88703032	      0.34709416	      6.04790369	     -7.62027092	     -7.49999987	     -4.26013305	     -6.23760438	     -7.38967442	     36.70391147	      0.64060410	     12.75277351	     -9.60824567	     -7.49999987	      4.57682425	      8.04267842	     -2.51329327	     -3.86589813	    -12.47430405	      4.83862846	     16.48341424	     77.97524607	      5.20179769	     -5.48610754	      6.28519407	     21.32630040	     77.88105975
     44.88333330	     -3.37919166	     -5.69296844	     -9.51094148	      0.71254466	      0.90970056	      0.74967978	     22.83485581	      9.10190141	      1.03981239	     19.79839578	      0.34554719	      7.12073190	     -8.11432743	     -7.49999987	     -2.10866600	     -7.29332784	     -7.49998893	     41.88545969	      0.73103918	      8.91414432	    -11.25682992	     -7.49999987	      4.13144052	      8.66465088	     -1.64192483	     -2.87807312	    -12.53158630	      5.11374637	     16.18908552	     78.12406083	      4.54487318	     -5.02228457	      6.44968646	     19.83594629	     78.11385269
     44.90000000	     -3.10801851	     -6.01303343	     -9.84796166	      0.71478782	      0.91292480	      0.75184351	     20.97527705	      9.60879032	      1.56486253	     19.37254828	      0.33811475	      8.14730745	     -8.29902317	     -7.49999987	      0.23236553	     -8.17585436	     -7.31452910	     46.77653307	      0.81640451	      5.49104211	    -12.76749798	     -7.49999987	      3.76353323	      9.13270404	     -0.66445269	     -1.71742955	    -12.54112335	      5.72243501	     15.84145970	     78.36804241	      4.15372496	     -4.65702501	      6.95628823	     18.05791438	     78.47232220
